.
 
http://www.scenetime.com    -  Hottest private tracker on the net. !!!

New release on http://www.scenetime.com

        Seed back for speed


...................................NFO:.................................................ooooo oooo   oooo oooooooo8 oooooooooo  o88   oooooooooo       o      ooooo       
 888   8888o  88 888         888    888 oooo   888    888     888      888        
 888   88 888o88  888oooooo  888oooo88   888   888oooo88     8  88     888        
 888   88   8888         888 888         888   888  88o     8oooo88    888      o 
o888o o88o    88 o88oooo888 o888o       o888o o888o  88o8 o88o  o888o o888ooooo88 

 
TITLE: 

Shame 2012 CAM READNFO XViD - INSPiRAL

IMDB: 
 
http://www.imdb.com/title/tt1723811/


SOURCES:

VIDEO - P76 THANKS
AUDIO - Wendy THANKS
SUBS  - None Add


Video
ID                               : 0
Format                           : MPEG-4 Visual
Format profile                   : Advanced Simple@L5
Format settings, BVOP            : 2
Format settings, QPel            : No
Format settings, GMC             : No warppoints
Format settings, Matrix          : Default (MPEG)
Muxing mode                      : Packed bitstream
Codec ID                         : XVID
Codec ID/Hint                    : XviD
Duration                         : 1h 35mn
Bit rate                         : 1 928 Kbps
Width                            : 640 pixels
Height                           : 256 pixels
Display aspect ratio             : 2.500
Frame rate                       : 25.000 fps
Color space                      : YUV
Chroma subsampling               : 4:2:0
Bit depth                        : 8 bits
Scan type                        : Progressive
Compression mode                 : Lossy
Bits/(Pixel*Frame)               : 0.471
Stream size                      : 1.28 GiB (93%)
Writing library                  : XviD 64

Audio
ID                               : 1
Format                           : MPEG Audio
Format version                   : Version 1
Format profile                   : Layer 3
Mode                             : Joint stereo
Mode extension                   : MS Stereo
Codec ID                         : 55
Codec ID/Hint                    : MP3
Duration                         : 1h 35mn
Bit rate mode                    : Constant
Bit rate                         : 128 Kbps
Channel(s)                       : 2 channels
Sampling rate                    : 44.1 KHz
Compression mode                 : Lossy
Stream size                      : 87.1 MiB (6%)
Alignment                        : Split accross interleaves
Interleave, duration             : 40 ms (1.00 video frame)
Interleave, preload duration     : 500 ms


NOTES:

Video was pretty nice considering the size,res etc....but the main issue is a faded watermark "shame" on the video itself...
no we never put it there.After a bit you forget about it as its quite faded.
Audio is very nice for cam indeed,some hiss and a couple of coughs but otherwise clean.
Video we tweaked the brightness,contrast,chroma,changed the rgb eq settings .....basically gave it some lov'in.
Audio,now cleaning it was the easy part ....syncing it what bitch :lol:
Was going oos every min or so by a second...so needed to cut and stretch,but the main problem we found when syncing was the video is
missing over 40 secs in 3 places ...a couple of 1 - 2 secs cuts and a big massive one lasting over 37secs.
And abit of work we got it all done so insync and looking and sounding good.


SCREENS:

[IMG]http://i.imgur.com/vuRPO.png[/IMG]
[IMG]http://i.imgur.com/l4Gmj.png[/IMG]
[IMG]http://i.imgur.com/1NhAM.png[/IMG]
[IMG]http://i.imgur.com/71iav.png[/IMG]
[IMG]http://i.imgur.com/ZTCEM.png[/IMG]


GREETZ: 

Past,Present and Future